HIERARCHY
ROOT Hips
{
	OFFSET 0.00000 0.00000 0.00000
	CHANNELS 6 Xposition Yposition Zposition Zrotation Yrotation Xrotation 
	JOINT LHipJoint
	{
		OFFSET 0 0 0
		CHANNELS 3 Zrotation Yrotation Xrotation
		JOINT LeftUpLeg
		{
			OFFSET 1.36337 -1.57426 1.11036
			CHANNELS 3 Zrotation Yrotation Xrotation
			JOINT LeftLeg
			{
				OFFSET 2.38468 -6.55187 0.00000
				CHANNELS 3 Zrotation Yrotation Xrotation
				JOINT LeftFoot
				{
					OFFSET 2.37166 -6.51609 0.00000
					CHANNELS 3 Zrotation Yrotation Xrotation
					JOINT LeftToeBase
					{
						OFFSET 0.29078 -0.79891 2.01393
						CHANNELS 3 Zrotation Yrotation Xrotation
						End Site
						{
							OFFSET 0.00000 -0.00000 1.07924
						}
					}
				}
			}
		}
	}
	JOINT RHipJoint
	{
		OFFSET 0 0 0
		CHANNELS 3 Zrotation Yrotation Xrotation
		JOINT RightUpLeg
		{
			OFFSET -1.36349 -1.57426 1.11036
			CHANNELS 3 Zrotation Yrotation Xrotation
			JOINT RightLeg
			{
				OFFSET -2.29562 -6.30717 0.00000
				CHANNELS 3 Zrotation Yrotation Xrotation
				JOINT RightFoot
				{
					OFFSET -2.40985 -6.62100 0.00000
					CHANNELS 3 Zrotation Yrotation Xrotation
					JOINT RightToeBase
					{
						OFFSET -0.23197 -0.63733 1.92232
						CHANNELS 3 Zrotation Yrotation Xrotation
						End Site
						{
							OFFSET -0.00000 -0.00000 1.01562
						}
					}
				}
			}
		}
	}
	JOINT LowerBack
	{
		OFFSET 0 0 0
		CHANNELS 3 Zrotation Yrotation Xrotation
		JOINT Spine
		{
			OFFSET -0.08565 2.03602 -0.24562
			CHANNELS 3 Zrotation Yrotation Xrotation
			JOINT Spine1
			{
				OFFSET -0.00036 2.05693 0.00216
				CHANNELS 3 Zrotation Yrotation Xrotation
				JOINT Neck
				{
					OFFSET 0 0 0
					CHANNELS 3 Zrotation Yrotation Xrotation
					JOINT Neck1
					{
						OFFSET -0.03664 1.69515 0.31789
						CHANNELS 3 Zrotation Yrotation Xrotation
						JOINT Head
						{
							OFFSET 0.00932 1.70181 -0.46013
							CHANNELS 3 Zrotation Yrotation Xrotation
							End Site
							{
								OFFSET 0.01243 1.77620 -0.19377
							}
						}
					}
				}
				JOINT LeftShoulder
				{
					OFFSET 0 0 0
					CHANNELS 3 Zrotation Yrotation Xrotation
					JOINT LeftArm
					{
						OFFSET 3.74344 0.81315 -0.36647
						CHANNELS 3 Zrotation Yrotation Xrotation
						JOINT LeftForeArm
						{
							OFFSET 4.97185 -0.00000 -0.00000
							CHANNELS 3 Zrotation Yrotation Xrotation
							JOINT LeftHand
							{
								OFFSET 3.35811 -0.00000 0.00000
								CHANNELS 3 Zrotation Yrotation Xrotation
								JOINT LeftFingerBase
								{
									OFFSET 0 0 0
									CHANNELS 3 Zrotation Yrotation Xrotation
									JOINT LeftHandIndex1
									{
										OFFSET 0.62278 -0.00000 0.00000
										CHANNELS 3 Zrotation Yrotation Xrotation
										End Site
										{
											OFFSET 0.50210 -0.00000 0.00000
										}
									}
								}
								JOINT LThumb
								{
									OFFSET 0 0 0
									CHANNELS 3 Zrotation Yrotation Xrotation
									End Site
									{
										OFFSET 0.50976 -0.00000 0.50976
									}
								}
							}
						}
					}
				}
				JOINT RightShoulder
				{
					OFFSET 0 0 0
					CHANNELS 3 Zrotation Yrotation Xrotation
					JOINT RightArm
					{
						OFFSET -3.75385 0.50666 -0.06525
						CHANNELS 3 Zrotation Yrotation Xrotation
						JOINT RightForeArm
						{
							OFFSET -4.96493 -0.00000 -0.00000
							CHANNELS 3 Zrotation Yrotation Xrotation
							JOINT RightHand
							{
								OFFSET -3.34929 -0.00000 0.00000
								CHANNELS 3 Zrotation Yrotation Xrotation
								JOINT RightFingerBase
								{
									OFFSET 0 0 0
									CHANNELS 3 Zrotation Yrotation Xrotation
									JOINT RightHandIndex1
									{
										OFFSET -0.63804 -0.00000 0.00000
										CHANNELS 3 Zrotation Yrotation Xrotation
										End Site
										{
											OFFSET -0.51441 -0.00000 0.00000
										}
									}
								}
								JOINT RThumb
								{
									OFFSET 0 0 0
									CHANNELS 3 Zrotation Yrotation Xrotation
									End Site
									{
										OFFSET -0.52226 -0.00000 0.52226
									}
								}
							}
						}
					}
				}
			}
		}
	}
}
MOTION
Frames: 9
Frame Time: .0083333
-21.7376 8.5781 0.9863 142.2950 66.6791 174.8840 0.0000 0.0000 0.0000 -11.6373 20.9735 -100.6081 35.4713 12.8325 141.2553 -0.3457 -28.4044 -18.0464 2.1132 -9.0980 -26.1024 0.0000 0.0000 0.0000 -23.1659 -54.2996 -59.4794 -35.7154 -12.5298 142.3670 8.1534 46.8277 0.8951 -0.7817 5.6446 -15.7567 -6.4515 -5.6754 38.2471 -2.5602 -7.8971 9.8421 3.4869 -2.9377 -7.1991 -2.4536 3.9052 -36.0301 -7.6738 8.4334 12.9413 -0.8903 2.8239 10.0749 -0.0000 -0.0000 0.0000 -8.9599 -85.2592 -24.9876 8.4715 -14.3142 -1.0657 -0.0000 -0.0000 13.3902 27.0736 -13.1101 -6.6133 -7.1250 0.0000 -0.0000 -0.1786 15.3223 0.1251 -0.0000 -0.0000 0.0000 92.0491 55.7410 56.7712 -11.8053 19.5120 -2.0368 0.0000 -0.0000 -7.9613 -50.2211 -29.7297 30.7803 7.1250 -0.0000 -0.0000 -30.8876 -69.4503 18.6985
-21.8470 8.6254 0.9368 142.7790 66.9957 174.8120 0.0000 0.0000 0.0000 -11.9268 20.3522 -100.3917 35.4573 12.8496 141.1921 -0.0778 -27.5175 -18.9907 2.0243 -8.9166 -25.5347 0.0000 0.0000 0.0000 -22.8604 -54.4342 -59.7931 -35.7094 -12.5374 142.3394 7.8290 46.3725 0.1051 -0.6976 5.3388 -14.8775 -6.5428 -5.1790 39.0776 -2.3156 -7.3638 9.6501 3.6469 -2.6637 -7.6866 -2.3992 3.7495 -35.7038 -7.8736 8.2189 12.7677 -1.0122 2.7226 9.9725 -0.0000 -0.0000 0.0000 -9.7399 -84.7708 -20.4159 9.4086 -15.8092 -1.3092 -0.0000 -0.0000 8.5123 26.2127 -13.3224 -6.4725 -7.1250 0.0000 -0.0000 -0.7849 15.1949 0.5518 -0.0000 -0.0000 0.0000 90.1497 56.0609 54.8660 -11.5900 19.1870 -1.9655 0.0000 -0.0000 -8.2342 -49.0975 -28.9017 29.1570 7.1250 -0.0000 -0.0000 -28.0927 -68.1589 16.1072
-21.9560 8.6868 0.8835 143.2600 67.3418 174.9590 0.0000 0.0000 0.0000 -12.2565 19.3674 -100.1189 35.3904 12.9302 140.8924 0.1527 -26.7877 -19.8571 1.9185 -8.6943 -24.8435 0.0000 0.0000 0.0000 -21.8629 -54.2165 -61.0593 -35.6897 -12.5623 142.2487 7.3896 45.7467 -0.9984 -0.6503 5.1583 -14.3605 -6.4053 -4.8409 39.8011 -2.1989 -6.9506 9.4603 3.5894 -2.4462 -8.1714 -2.4723 3.5341 -35.6326 -8.0647 7.9939 12.4560 -1.1115 2.6163 9.8508 0.0000 0.0000 0.0000 -8.5569 -83.9253 -17.2238 10.3921 -17.3505 -1.5899 -0.0000 -0.0000 4.0473 25.7781 -13.5885 -6.4735 -7.1250 0.0000 -0.0000 -1.1020 14.9562 0.7804 0.0000 0.0000 0.0000 88.5065 56.3050 53.1197 -11.4800 19.0202 -1.9294 0.0000 -0.0000 -8.2442 -48.4616 -27.9167 27.8554 7.1250 -0.0000 -0.0000 -26.3888 -66.8210 14.2834
-22.0623 8.7638 0.8301 143.7710 67.8204 175.2620 0.0000 0.0000 0.0000 -12.5138 18.3070 -99.8965 35.2858 13.0545 140.4273 0.3415 -26.0479 -20.4924 1.8833 -8.6187 -24.6098 0.0000 0.0000 0.0000 -20.5040 -53.7491 -62.7632 -35.6417 -12.6225 142.0287 7.1152 45.2016 -1.3288 -0.5776 4.8667 -13.5288 -6.2838 -4.4245 40.4212 -2.0390 -6.4234 9.3494 3.5256 -2.1867 -8.5327 -2.4630 3.2734 -35.4005 -8.3888 7.6733 11.8836 -1.2880 2.4751 9.6183 0.0000 -0.0000 0.0000 -6.4886 -83.1213 -15.7951 11.2837 -18.7218 -1.8660 -0.0000 -0.0000 2.0896 26.0819 -13.7124 -6.6188 -7.1250 0.0000 -0.0000 -0.9039 14.7824 0.6435 0.0000 -0.0000 0.0000 86.4824 56.8478 51.2347 -11.5156 19.0742 -1.9411 0.0000 -0.0000 -8.6585 -47.9883 -28.7412 28.0943 7.1250 -0.0000 -0.0000 -25.8963 -67.6282 14.4728
-22.1636 8.8686 0.7799 144.3010 68.4541 175.5580 0.0000 0.0000 0.0000 -12.8470 17.4196 -99.6248 35.1399 13.2245 139.7852 0.5472 -25.1581 -21.1650 1.8814 -8.6146 -24.5969 0.0000 0.0000 0.0000 -19.0267 -52.9595 -64.4394 -35.5344 -12.7555 141.5399 7.0779 44.7189 -0.3039 -0.5175 4.6107 -12.8015 -5.8261 -4.2530 40.9589 -2.3165 -6.0490 9.4902 2.8650 -1.9909 -8.6537 -2.4164 2.9881 -35.9774 -8.1678 7.2540 11.6614 -1.2904 2.3170 9.5928 -0.0000 -0.0000 0.0000 -1.8405 -81.9385 -16.9848 12.1762 -20.0684 -2.1624 -0.0000 -0.0000 1.5929 26.8438 -13.8461 -6.9058 -7.1250 0.0000 -0.0000 -0.3956 14.5375 0.2837 -0.0000 -0.0000 0.0000 85.4885 58.0798 49.2030 -11.5278 19.0927 -1.9451 0.0000 -0.0000 -9.2103 -46.4052 -31.7881 28.9547 7.1250 -0.0000 -0.0000 -24.0463 -70.6001 14.9731
-22.2696 8.9920 0.7206 144.9510 68.9992 176.2260 0.0000 0.0000 0.0000 -13.2956 15.9171 -99.6226 34.9640 13.4242 139.0220 0.9118 -23.5373 -22.4248 1.9985 -8.8630 -25.3676 0.0000 0.0000 0.0000 -17.2745 -52.1089 -66.6225 -35.3849 -12.9368 140.8677 7.1110 44.1087 1.6743 -0.5514 4.7570 -13.2167 -5.6563 -3.7662 41.2931 -1.9623 -5.3600 9.5185 2.8914 -1.6822 -8.7533 -2.7352 2.4343 -35.2718 -8.3014 6.6020 10.7484 -1.4042 2.0622 9.1382 -0.0000 -0.0000 0.0000 0.4584 -81.3475 -17.1932 12.9250 -21.1772 -2.4261 -0.0000 -0.0000 1.2730 27.5220 -14.1579 -7.2630 -7.1250 0.0000 -0.0000 0.0379 14.1015 -0.0275 -0.0000 -0.0000 0.0000 83.0493 59.2062 45.2680 -11.7004 19.3537 -2.0019 0.0000 -0.0000 -9.8320 -43.4382 -35.3461 28.7141 7.1250 -0.0000 -0.0000 -18.5333 -73.6056 12.6603
-22.3678 9.1473 0.6630 146.2020 69.6885 176.7850 0.0000 0.0000 0.0000 -13.4022 15.0568 -98.4748 34.7218 13.6904 137.9889 1.1941 -22.3616 -23.5138 1.9832 -8.8311 -25.2683 0.0000 0.0000 0.0000 -15.9143 -50.5040 -67.5148 -35.1419 -13.2222 139.7941 7.0676 43.4110 3.5689 -0.6197 5.0377 -14.0160 -4.9526 -3.6106 42.7505 -2.1552 -4.9189 9.5513 2.1816 -1.4315 -9.2670 -2.9133 1.8617 -35.2814 -7.7237 5.7737 10.1994 -1.3147 1.7749 8.8796 0.0000 0.0000 0.0000 2.9735 -80.1764 -16.5022 13.8859 -22.5714 -2.7842 -0.0000 0.0000 -0.4135 27.8112 -14.3729 -7.4598 -7.1250 0.0000 -0.0000 0.2140 13.8226 -0.1567 0.0000 0.0000 0.0000 81.8878 60.0021 42.8956 -11.5107 19.0668 -1.9395 0.0000 -0.0000 -9.1530 -42.8365 -35.3793 28.2284 7.1250 -0.0000 -0.0000 -17.2403 -73.4492 11.7053
-22.4552 9.3231 0.6156 147.8960 70.7651 177.4310 0.0000 0.0000 0.0000 -13.2817 15.1958 -96.8899 34.4373 13.9907 136.7998 1.4078 -21.5915 -24.4203 1.9842 -8.8331 -25.2747 0.0000 0.0000 0.0000 -14.4055 -48.1945 -68.0881 -34.8653 -13.5339 138.5987 6.8914 42.7472 4.3478 -0.7391 5.4920 -15.3174 -4.5228 -3.2018 44.7401 -2.2438 -4.2654 9.5646 1.6228 -1.0784 -9.8928 -3.2722 1.1596 -35.2886 -6.9569 4.8233 9.5164 -1.1483 1.4508 8.5661 -0.0000 0.0000 0.0000 5.5934 -78.8988 -16.0116 14.8642 -23.9566 -3.1706 -0.0000 0.0000 -2.5581 28.0987 -14.7453 -7.7388 -7.1250 0.0000 -0.0000 0.3727 13.3673 -0.2764 -0.0000 0.0000 0.0000 80.6298 60.7619 40.5874 -11.3207 18.7782 -1.8779 0.0000 -0.0000 -8.6266 -42.6740 -34.6829 27.6820 7.1250 -0.0000 -0.0000 -16.9275 -72.6352 11.1931
-22.5389 9.5071 0.5743 149.8390 72.0082 178.5430 0.0000 0.0000 0.0000 -13.2214 15.5081 -95.7623 34.1192 14.3118 135.4985 1.6967 -20.1856 -25.5481 2.1535 -9.1787 -26.3558 0.0000 0.0000 0.0000 -12.5940 -45.8748 -69.1478 -34.6037 -13.8167 137.4919 6.6858 42.3171 3.9943 -0.9931 6.3424 -17.7812 -4.2743 -2.6431 46.4556 -2.2097 -3.5096 9.5063 1.2180 -0.7030 -10.4614 -3.8779 0.3444 -35.0464 -6.0813 3.8024 8.7188 -0.9283 1.1042 8.1725 0.0000 -0.0000 0.0000 7.4732 -77.4791 -14.8877 15.8775 -25.3543 -3.5934 -0.0000 0.0000 -4.6443 28.2787 -14.8381 -7.8441 -7.1250 0.0000 -0.0000 0.4845 13.2376 -0.3607 0.0000 -0.0000 0.0000 79.2415 61.5493 38.1729 -11.0674 18.3914 -1.7971 0.0000 -0.0000 -7.8278 -41.7862 -34.0831 26.6021 7.1250 -0.0000 -0.0000 -15.2112 -71.6912 9.7303
